. 
 
http://www.torrenting.com          :     Once & For all ;)


               www . Torrenting . Com 

(((((((((((((= Enjoy No RAR releases =))))))))))))))))))))


...................................NFO:....................................

.[IMG]http://img521.imageshack.us/img521/7651/hangover2.jpg[/IMG]


[color=blue][size=5][b]The.Hangover.Part.II.2011.BDRip.XVID.AC3.HQ.Hive-CM8[/b][/size][/color]


[b]Thx Hive

CM8 Doing It Right The First Time :D


Source: Bluray

Video: 720x304 @bitrate 1700 2pass
Audio: English DTS to AC3 5.1 @448
Sample: yes included
Subs: yes english in srt /subs[/b]


[url]http://www.imdb.com/title/tt1411697/[/url]


General
Complete name                  : The.Hangover.Part.II.2011.BDRip.XVID.AC3.HQ.Hive-CM8.avi
Format                         : AVI
Format/Info                    : Audio Video Interleave
File size                      : 1.61 GiB
Duration                       : 1h 41mn
Overall bit rate               : 2 259 Kbps
Writing application            : Nandub v1.0rc2
Writing library                : Nandub build 1853/release

Video
ID                             : 0
Format                         : MPEG-4 Visual
Format profile                 : Advanced Simple@L5
Format settings, BVOP          : 1
Format settings, QPel          : Yes
Format settings, GMC           : No warppoints
Format settings, Matrix        : Default (H.263)
Muxing mode                    : Packed bitstream
Codec ID                       : XVID
Codec ID/Hint                  : XviD
Duration                       : 1h 41mn
Bit rate                       : 1 802 Kbps
Width                          : 720 pixels
Height                         : 304 pixels
Display aspect ratio           : 2.40:1
Frame rate                     : 23.976 fps
Color space                    : YUV
Chroma subsampling             : 4:2:0
Bit depth                      : 8 bits
Scan type                      : Progressive
Compression mode               : Lossy
Bits/(Pixel*Frame)             : 0.343
Stream size                    : 1.28 GiB (80%)
Writing library                : XviD 1.2.1 (UTC 2008-12-04)

Audio
ID                             : 1
Format                         : AC-3
Format/Info                    : Audio Coding 3
Mode extension                 : CM (complete main)
Codec ID                       : 2000
Duration                       : 1h 41mn
Bit rate mode                  : Constant
Bit rate                       : 448 Kbps
Channel(s)                     : 6 channels
Channel positions              : Front: L C R, Side: L R, LFE
Sampling rate                  : 48.0 KHz
Bit depth                      : 16 bits
Compression mode               : Lossy
Stream size                    : 326 MiB (20%)
Alignment                      : Split accross interleaves
Interleave, duration           : 42 ms (1.00 video frame)
Interleave, preload duration   : 500 ms


Plot:

Right after the bachelor party in Las Vegas, Phil, Stu, Alan, and Doug jet to Thailand 
for Stu's wedding. Stu's plan for a subdued pre-wedding brunch, however, goes seriously awry. 


Cast:

Bradley Cooper  ... 	    Phil
Ed Helms	        ... 	        Stu
Zach Galifianakis	... 	Alan
Justin Bartha	... 	Doug
Ken Jeong	... 	Mr. Chow
Paul Giamatti	... 	Kingsley
Mike Tyson	... 	Himself


[img]http://img215.imageshack.us/img215/6746/57788842.png[/img]
[img]http://img521.imageshack.us/img521/1120/hahad.png[/img]
[img]http://img802.imageshack.us/img802/1354/hahahay.png[/img]
[img]http://img194.imageshack.us/img194/3696/hahahahatb.png[/img]
[img]http://img266.imageshack.us/img266/391/hahahahahax.png[/img]
[img]http://img267.imageshack.us/img267/588/hahahahahahao.png[/img]
[img]http://img855.imageshack.us/img855/7651/hahahahahahahar.png[/img]




Greetz

ViSiON,SPK,SANTi,3LT0N,FUSiON,YanKeeS,MAGNET,T0XiC,LKRG,Feel-Free,FANTASIA-PLAY,FANTASIA-M,FLAWL3SS,
WBZ,BHRG,NOVA,D2U,THC,Vik,Rapeseed,SAFC,goldadvance,MEMORY100,KaN1vE,Unevano,Pinnz,Wayne,
Mr Hive,and most P2P groups
Great Work Guys :D

LOOKING FOR ANYTHING YOU WANT TO LOOK AND SOUND BETTER

CM8@hushmail.com